<?xml version="1.0" standalone="no"?>
<!DOCTYPE svg PUBLIC "-//W3C//DTD SVG 20010904//EN"
 "http://www.w3.org/TR/2001/REC-SVG-20010904/DTD/svg10.dtd">
<svg version="1.0" xmlns="http://www.w3.org/2000/svg"
 width="960.000000pt" height="960.000000pt" viewBox="0 0 960.000000 960.000000"
 preserveAspectRatio="xMidYMid meet">
<metadata>
Created by potrace 1.14, written by Peter Selinger 2001-2017
</metadata>
<g transform="translate(0.000000,960.000000) scale(0.100000,-0.100000)"
fill="#000000" stroke="none">
<path d="M4392 8959 c-9 -4 -20 -5 -25 -2 -13 8 -47 -8 -47 -21 0 -8 -7 -19
-15 -26 -8 -7 -12 -16 -9 -21 3 -5 0 -9 -5 -9 -6 0 -11 -7 -11 -15 0 -8 -4
-15 -10 -15 -5 0 -12 -11 -16 -25 -3 -14 -10 -25 -15 -25 -5 0 -9 -4 -9 -10 0
-5 -16 -34 -35 -64 -19 -30 -35 -58 -35 -61 0 -3 -5 -11 -10 -18 -6 -7 -67
-106 -136 -221 -68 -115 -130 -216 -136 -223 -6 -7 -7 -13 -2 -13 5 0 1 -5 -8
-11 -10 -5 -18 -14 -18 -19 0 -5 -21 -44 -47 -87 -65 -106 -71 -116 -79 -130
-3 -7 -43 -74 -89 -150 -165 -272 -195 -323 -195 -332 0 -5 -3 -11 -8 -13 -4
-1 -50 -74 -102 -161 -52 -86 -105 -174 -118 -195 -12 -20 -31 -53 -42 -72
-11 -19 -32 -53 -46 -75 -14 -22 -27 -48 -31 -57 -3 -10 -9 -18 -13 -18 -4 0
-10 -8 -14 -17 -3 -10 -15 -31 -26 -48 -11 -16 -27 -44 -37 -61 -30 -52 -74
-127 -99 -164 -12 -19 -28 -47 -35 -62 -7 -16 -16 -28 -21 -28 -4 0 -7 -3 -6
-7 1 -5 -5 -19 -14 -33 -47 -72 -208 -344 -208 -352 0 -4 -5 -8 -11 -8 -5 0
-8 -4 -5 -9 4 -5 2 -11 -2 -13 -7 -3 -87 -130 -105 -168 -12 -24 -30 -53 -54
-87 -13 -17 -23 -36 -23 -42 0 -6 -4 -11 -10 -11 -5 0 -9 -3 -8 -7 3 -13 -24
-63 -34 -63 -4 0 -8 -4 -8 -10 0 -5 -15 -33 -32 -63 -54 -86 -55 -89 -105
-172 -26 -43 -61 -102 -77 -130 -16 -27 -32 -52 -36 -55 -4 -3 -13 -20 -21
-37 -8 -18 -18 -33 -22 -33 -5 0 -5 -4 -2 -10 3 -5 1 -10 -5 -10 -6 0 -14 -8
-17 -17 -4 -10 -21 -42 -40 -71 -18 -29 -33 -54 -33 -56 0 -2 -18 -33 -39 -67
-64 -103 -136 -223 -140 -234 -2 -5 -9 -17 -16 -25 -7 -8 -24 -35 -37 -60 -14
-25 -55 -94 -92 -154 -36 -60 -66 -112 -66 -117 0 -5 -4 -9 -10 -9 -5 0 -10
-6 -10 -13 0 -8 -9 -24 -20 -37 -11 -13 -20 -29 -20 -37 0 -7 -4 -13 -9 -13
-5 0 -11 -8 -14 -17 -4 -10 -17 -36 -31 -58 -14 -22 -35 -56 -46 -75 -11 -19
-32 -53 -46 -75 -14 -22 -27 -48 -31 -57 -3 -10 -9 -18 -13 -18 -4 0 -10 -8
-14 -17 -3 -10 -11 -27 -18 -37 -47 -71 -82 -132 -80 -138 1 -5 -3 -8 -8 -8
-6 0 -10 -4 -10 -10 0 -5 -20 -41 -45 -80 -25 -39 -45 -73 -45 -75 0 -3 -16
-29 -35 -58 -19 -28 -35 -57 -35 -64 0 -7 -4 -13 -10 -13 -5 0 -10 -4 -10 -9
0 -5 -23 -45 -50 -88 -28 -43 -53 -85 -57 -93 -4 -8 -35 -61 -70 -117 -34 -57
-59 -103 -55 -103 4 0 -1 -5 -10 -11 -10 -5 -18 -17 -18 -25 0 -8 -8 -23 -17
-34 -10 -10 -27 -36 -38 -57 -11 -21 -27 -49 -36 -63 -40 -62 -53 -86 -51 -93
1 -4 -2 -7 -6 -7 -5 0 -14 -11 -20 -24 -6 -14 -22 -42 -35 -63 -13 -21 -24
-42 -25 -47 0 -5 -4 -12 -9 -15 -12 -8 -333 -545 -333 -557 0 -5 27 -24 60
-42 33 -18 60 -36 60 -40 0 -4 -29 -21 -65 -37 -75 -35 -75 -23 0 -180 162
-337 204 -426 205 -430 0 -3 18 -40 39 -82 22 -43 72 -145 111 -228 187 -391
178 -375 202 -375 13 0 46 1 73 1 28 0 57 0 65 0 8 0 62 0 120 0 58 0 110 1
115 0 55 -3 227 -2 230 1 2 2 31 1 65 -2 33 -3 60 -3 60 1 0 3 20 3 43 -1 24
-3 52 -3 63 0 10 4 32 4 49 0 16 -3 44 -3 61 0 16 4 38 4 49 0 10 -3 38 -3 61
0 24 4 46 5 48 2 7 -7 106 -8 106 -1 0 3 20 3 43 -1 24 -3 52 -3 62 0 11 4 33
4 49 0 17 -3 52 -3 78 0 27 4 48 4 48 1 0 -7 109 -5 116 1 2 3 20 2 40 -1 20
-3 76 -4 125 -1 49 3 89 1 89 -3 0 -5 4 -6 8 -3 9 5 68 7 222 6 58 -1 110 0
115 1 6 1 13 1 17 0 7 -1 74 -1 111 -1 15 1 88 1 120 1 6 0 59 -1 117 -1 58
-1 110 0 115 1 6 1 13 1 17 0 7 -1 74 -1 111 -1 15 1 88 1 120 1 6 0 61 -1
120 -2 59 -1 110 1 112 3 2 2 31 1 65 -2 33 -3 60 -3 60 1 0 3 20 3 43 -1 24
-3 52 -3 63 0 10 4 32 4 49 0 16 -3 44 -3 61 0 16 4 38 4 49 0 10 -3 38 -3 61
0 24 4 46 5 48 2 7 -7 106 -8 106 -1 0 3 20 3 43 -1 24 -3 52 -3 62 0 11 4 33
4 49 0 17 -3 52 -3 78 0 27 4 48 4 48 1 0 -7 109 -5 116 1 2 3 20 2 40 -1 20
-3 76 -4 125 -1 49 3 89 1 89 -3 0 -5 4 -6 8 -3 9 5 68 7 222 6 58 -1 110 0
115 1 6 1 13 1 17 0 7 -1 74 -1 111 -1 15 1 88 1 120 1 6 0 59 -1 117 -1 58
-1 110 0 115 1 6 1 13 1 17 0 7 -1 74 -1 111 -1 15 1 88 1 120 1 6 0 61 -1
120 -2 59 -1 110 1 112 3 2 2 31 1 65 -2 33 -3 60 -3 60 1 0 3 20 3 43 -1 24
-3 52 -3 63 0 10 4 32 4 49 0 16 -3 44 -3 61 0 16 4 38 4 49 0 10 -3 38 -3 61
0 24 4 46 5 48 2 7 -7 106 -8 106 -1 0 3 20 3 43 -1 24 -3 52 -3 62 0 11 4 33
4 49 0 17 -3 52 -3 78 0 27 4 48 4 48 1 0 -7 109 -5 116 1 2 3 20 2 40 -1 20
-3 76 -4 125 -1 49 3 89 1 89 -3 0 -5 4 -6 8 -3 9 5 68 7 222 6 58 -1 110 0
115 1 6 1 13 1 17 0 7 -1 74 -1 111 -1 20 1 100 1 125 1 112 -2 163 -1 170 2
4 3 16 1 26 -3 11 -3 37 -4 57 0 21 4 43 4 50 -1 20 -12 53 9 40 25 -6 7 -8
16 -5 19 9 9 9 81 1 94 -15 24 10 20 77 -12 l70 -33 28 55 c15 31 28 62 28 69
0 8 5 14 10 14 6 0 10 4 10 9 0 16 82 186 94 193 6 4 7 8 3 8 -5 0 -1 12 7 28
31 57 96 200 96 211 0 6 3 11 8 11 4 0 20 32 36 70 17 39 33 70 38 70 4 0 8 9
8 19 0 11 5 23 10 26 6 4 8 11 5 16 -4 5 -1 9 4 9 6 0 11 4 11 9 0 6 29 70 64
143 150 314 139 287 122 313 -9 14 -28 46 -43 72 -14 26 -35 62 -45 78 -10 17
-21 38 -24 47 -4 10 -10 18 -15 18 -5 0 -9 6 -9 14 0 7 -11 29 -24 49 -13 19
-22 38 -18 41 3 3 0 6 -6 6 -7 0 -12 5 -12 10 0 6 -11 27 -23 48 -13 20 -35
57 -49 82 -14 25 -48 85 -77 133 -28 49 -51 93 -51 98 0 5 -4 9 -9 9 -5 0 -11
8 -14 17 -4 10 -22 45 -42 78 -19 33 -41 71 -47 85 -7 14 -15 27 -18 30 -3 3
-11 16 -18 30 -6 14 -16 32 -22 40 -5 8 -39 66 -75 128 -63 109 -85 148 -142
249 -14 27 -37 65 -50 85 -12 21 -23 40 -23 44 0 3 -8 18 -19 32 -10 15 -31
50 -45 77 -15 28 -36 64 -47 80 -10 17 -22 37 -26 45 -3 8 -30 57 -60 107 -30
51 -53 94 -51 97 2 2 -4 12 -13 22 -20 24 -67 106 -67 118 0 5 -4 12 -9 15 -8
6 -123 203 -236 406 -28 50 -54 92 -57 95 -3 3 -13 21 -22 40 -9 19 -28 52
-42 73 -14 21 -26 40 -26 43 0 3 -22 44 -50 91 -27 47 -50 89 -50 94 0 5 -4 9
-8 9 -4 0 -13 12 -20 28 -6 15 -23 46 -37 70 -14 23 -36 61 -50 85 -14 23 -31
54 -37 70 -7 15 -16 27 -20 27 -4 0 -8 4 -8 9 0 13 -73 135 -82 139 -5 2 -8
10 -8 18 0 7 -18 43 -40 79 -22 36 -40 70 -40 75 0 6 -3 10 -7 10 -5 0 -13 10
-19 23 -20 44 -59 111 -72 125 -7 7 -10 18 -7 23 4 5 2 9 -2 9 -5 0 -22 26
-38 58 -17 31 -33 59 -37 60 -5 2 -8 10 -8 17 0 7 -3 15 -7 17 -5 2 -17 21
-28 43 -11 22 -22 42 -25 45 -5 4 -181 312 -214 375 -6 11 -14 22 -17 25 -3 3
-19 30 -36 60 -74 137 -97 176 -105 187 -5 7 -17 27 -27 45 -10 18 -27 50 -39
71 -12 20 -30 52 -41 70 -10 17 -51 88 -90 155 -39 68 -71 128 -71 133 0 5 -4
9 -8 9 -4 0 -13 12 -20 28 -6 15 -23 45 -36 67 -14 22 -30 51 -36 64 -6 13
-19 35 -29 50 -10 14 -32 51 -48 81 -17 30 -46 84 -67 118 -20 35 -36 68 -36
73 0 5 -4 9 -10 9 -5 0 -10 7 -10 15 0 8 -4 15 -10 15 -5 0 -10 9 -10 20 0 11
-4 20 -9 20 -5 0 -13 10 -17 23 -3 12 -12 29 -19 37 -7 8 -26 40 -42 70 -17
30 -39 71 -50 90 -11 19 -60 105 -109 190 -49 85 -91 157 -94 160 -3 3 -11 17
-17 32 -7 15 -25 46 -40 70 -15 24 -28 45 -28 48 -1 9 -58 105 -73 123 -8 9
-11 17 -7 17 4 0 1 8 -7 18 -15 16 -30 43 -101 172 -17 30 -38 66 -49 79 -10
13 -18 28 -18 33 0 5 -7 20 -16 33 l-15 24 -32 -19 c-63 -38 -96 -52 -107 -45
-7 5 -8 11 -1 19 6 7 6 17 1 26 -5 9 -5 19 1 26 7 8 6 14 -1 19 -7 4 -7 12 0
26 6 10 9 19 8 20 -24 6 -51 9 -88 9 -25 0 -54 0 -65 0 -25 1 -26 1 -103 0
-35 -1 -66 1 -69 3 -2 3 -17 2 -31 -2 -15 -5 -36 -5 -46 -1 -11 3 -39 3 -62 0
-24 -4 -46 -5 -48 -2 -3 2 -58 4 -123 3 -65 -1 -129 -2 -143 -1 -112 4 -184 4
-198 -1z"/>
</g>
</svg>
